<svg id="Layer_1" data-name="Layer 1" xmlns="http://www.w3.org/2000/svg" viewBox="0 0 486.13 470.81"><defs><style>.cls-1{fill:#374c5f;}.cls-2{fill:#fc0100;}.cls-3{fill:#fa0203;}.cls-4{fill:#f70401;}.cls-5{fill:#384d5f;}.cls-6{fill:#384d5e;}.cls-7{fill:#394d5d;}.cls-8{fill:#384e5d;}.cls-9{fill:#3c4f62;}.cls-10{fill:#364c5d;}.cls-11{fill:#374d5f;}.cls-12{fill:#394c5d;}.cls-13{fill:#d4302f;}.cls-14{fill:#ce2a2b;}.cls-15{fill:#d5222d;}.cls-16{fill:#d02429;}.cls-17{fill:#d22b2d;}.cls-18{fill:#d22531;}.cls-19{fill:#cc2b2f;}.cls-20{fill:#d12a32;}.cls-21{fill:#d23034;}.cls-22{fill:#da232b;}.cls-23{fill:#f6c8be;}.cls-24{fill:#c33b3e;}.cls-25{fill:#e12723;}.cls-26{fill:#de1f26;}.cls-27{fill:#ce4a43;}.cls-28{fill:#edb0b6;}.cls-29{fill:#c73241;}.cls-30{fill:#de1d28;}.cls-31{fill:#f1b4ad;}.cls-32{fill:#e2797d;}.cls-33{fill:#de2c30;}.cls-34{fill:#d62a2d;}.cls-35{fill:#cc2f37;}.cls-36{fill:#db1216;}.cls-37{fill:#de1b1f;}.cls-38{fill:#d1383a;}.cls-39{fill:#db4743;}.cls-40{fill:#d62321;}.cls-41{fill:#dc2c2f;}.cls-42{fill:#d13d37;}.cls-43{fill:#d62b35;}.cls-44{fill:#d63b40;}.cls-45{fill:#edd0bf;}.cls-46{fill:#f8ccc4;}.cls-47{fill:#d72f2f;}.cls-48{fill:#d71a1c;}.cls-49{fill:#d22828;}.cls-50{fill:#d64344;}.cls-51{fill:#d61d22;}.cls-52{fill:#e9f0f8;}.cls-53{fill:#eff5fc;}.cls-54{fill:#e7eef2;}.cls-55{fill:#e8edee;}.cls-56{fill:#f1f1ed;}.cls-57{fill:#f1f2f1;}.cls-58{fill:#f5f5f5;}.cls-59{fill:#f4dfd0;}.cls-60{fill:#f8d1c8;}</style></defs><path class="cls-1" d="M307.27,156.15c0-13.87,0-27.74,0-41.61,0-1.39-.6-3.36.79-4s2.17,1.24,3.08,2.12c7,6.78,14,13.62,20.95,20.45a8.74,8.74,0,0,1,2.65,6.58q-.08,36,0,71.9c0,3.34-1.6,5.62-3.75,7.82-12.74,13-25.95,25.48-39,38.1-17.48,16.86-34.71,34-52.36,50.68-.65.61-1.34,1.18-1.92,1.84-2.07,2.32-3.56,1.39-5.45-.49-17.14-17.06-34.12-34.28-51.65-50.92-13.77-13-27.43-26.2-40.86-39.59a10.15,10.15,0,0,1-3.17-7.7q.07-35.61-.06-71.24a9.07,9.07,0,0,1,3.09-7.29c7.21-6.74,14.21-13.7,21.34-20.54.73-.7,1.45-2.11,2.65-1.47.88.46.44,1.82.45,2.78q.45,42.93.84,85.88a12.19,12.19,0,0,0,3.72,8.92q24,24.19,48.74,47.72c.85.82,1.68,2.27,2.94,1.75s.61-2.18.61-3.29c0-16,.11-32-.06-47.94,0-3.18,1-3.93,3.95-3.85,7.31.19,14.64.2,22,0,2.9-.08,3.48,1,3.46,3.63-.12,16.2-.09,32.4-.06,48.6,0,1-.65,2.54.57,3s1.85-1,2.61-1.73q24.54-23.68,49-47.41a14,14,0,0,0,4.4-10.42q0-21.13,0-42.28Z"/><path class="cls-2" d="M281.27,85.68a63.32,63.32,0,0,1,8,7.79,13.57,13.57,0,0,1,2,7.89q-.09,45.42,0,90.85a15,15,0,0,1-4.65,11.24c-5.27,5.24-10.71,10.29-16,15.52-.91.91-1.78,2.17-3.38,1.56s-1-2.13-1.1-3.2a208.93,208.93,0,0,1,0-20.94,29.72,29.72,0,0,0,.14-3c-.19-3.81-1.28-4.88-5.14-4.89-8.87,0-17.75,0-26.62,0-8.1,0-16.2,0-24.29,0-4.41,0-5.51,1.13-5.53,5.53,0,8.18.2,16.36.28,24.55,0,1.38.21,3.34-2.32,2.91h0c-.5-2.19-2.37-3-4-3.95h0c-1.13-2.45-3.31-3.85-5.42-5.31-2.8-3-5.85-5.71-8.89-8.45-3.14-2.32-4.09-5.41-4-9.26.21-8.52.07-17,.06-25.56,0-4.17.32-8.55-.29-12.45-1.32-8.44-.34-16.76-.18-25.07.19-10.83.57-21.66.44-32.48-.05-3.53,2-5.7,4.24-7.87a12.41,12.41,0,0,1,4.1-3.77,15.83,15.83,0,0,0,4.11-4.09c2.69-2.35,4.74-5.37,7.66-7.49a26,26,0,0,0,8.31-7.88c2.2-2.41,4.2-5,7.07-6.73A8.79,8.79,0,0,0,220,56.29l0,0c3.38-1.51,4.77-5.19,7.78-7.11a3.12,3.12,0,0,0,2.6-2.47,9.73,9.73,0,0,1,3.19-3c3.58-1.13,5.38,2,8,3.29,1.72.6,2.48,2.3,3.83,3.32,4.73,4.49,9.5,8.92,13.82,13.81a106.5,106.5,0,0,0,9.13,9.27c2,2,3.73,4.28,6.3,5.64h0C276.35,81.69,279,83.51,281.27,85.68Z"/><path class="cls-3" d="M104.91,185.46a.36.36,0,0,1-.18-.44c-.37-.64-1.1-1-1.31-1.76-.49-1.53-1.81-2.12-3.1-2.76-1.63-1.57-3.24-3.15-4.81-4.78-.67-.7-1.54-1.31-.74-2.44,5.11-5,10.38-9.88,15.93-14.42,3-1.42,4.9-4.24,7.4-6.29.9-.75,1.59-1.75,2.85-2,1.52.64,1.16,2,1.16,3.15q0,21.72,0,43.43c0,1.06.38,2.43-.8,3-1.47.74-2.1-.82-2.9-1.58C113.85,194.31,109.7,189.56,104.91,185.46Z"/><path class="cls-4" d="M373.19,169.53a1.53,1.53,0,0,1,1.31,1.2c.23,1.82,3.4,1.89,2.66,4.08-.57,1.69-2.37,2.57-3.6,3.83-6.11,6.26-12.4,12.34-18.55,18.55a14,14,0,0,1-1.68,1.6c-1.77,1.27-3.22.62-3.44-1.57a48.81,48.81,0,0,1-.05-5c0-11.76,0-23.51,0-35.27,0-1.69-.85-3.81.92-5,2-1.35,3.37.91,5,1.59h0c.83,1.87,2.58,2.76,4.09,3.92l0,0c2.31,2.16,4.47,4.47,6.77,6.63C368.91,165.81,370.49,168.34,373.19,169.53Z"/><path class="cls-5" d="M335.16,348.8c0-3.06.12-6.13,0-9.18-.15-2.83,1.65-2.69,3.48-2.54s4.14-.9,4.07,2.59c-.15,7.54-.08,15.08,0,22.62,0,1.8-.53,2.46-2.44,2.62-3.54.28-6.12-.43-7.62-4.1a27.39,27.39,0,0,0-5.28-7.95c0,3.12-.16,6.26,0,9.37.23,3.49-2.19,2.49-4,2.61-2,.12-3.71.27-3.64-2.73.17-7.42.13-14.85,0-22.28,0-2.3.95-2.68,3-2.81,3.18-.2,5.41.46,6.78,3.75,1.21,2.91,3.12,5.53,4.73,8.27Z"/><path class="cls-5" d="M137.22,350.83c0-3.55.14-7.11-.05-10.65-.14-2.56.84-3.27,3.26-3.15,3.55.18,7.1,0,10.65.07,5.82.13,9,5.43,6.11,10.45-1.17,2-.95,2.84.54,4.57,3.79,4.39.78,11.94-4.92,12.46-4.52.41-9.09.17-13.64.28-1.76,0-1.94-1-1.93-2.38,0-3.88,0-7.77,0-11.65Z"/><path class="cls-6" d="M194.94,354.4c0,2.62-.12,5.24,0,7.85.12,2.09-.74,2.79-2.7,2.62a28.27,28.27,0,0,0-3.32,0c-1.56.06-2.14-.64-2.14-2.19q.08-11.62,0-23.26c0-1.69.57-2.37,2.31-2.33,3.87.09,7.75,0,11.62.06,3.19,0,6,.82,7.07,4.3,1.15,3.64,1,7.12-2,9.78-1.4,1.23-1.53,1.81-.36,3.3,1.91,2.45,2.78,5.51,4,8.34.25.59.63,1.2-.09,1.77-1.59,1.27-8.06-.24-9.09-2.07C198.75,359.8,198.25,356.47,194.94,354.4Z"/><path class="cls-7" d="M224,351c0-3.66.12-7.33,0-11-.11-2.4.82-3.11,3.09-3,2.65.16,5.32,0,8,.05,6,.08,9.26,2.74,10.32,8.67a34.9,34.9,0,0,1,.49,6.62c-.13,8.61-4.13,12.55-12.73,12.42-2.93,0-6.68,1.34-8.58-.76-1.71-1.9-.4-5.53-.52-8.39C224,354.11,224,352.56,224,351Z"/><path class="cls-8" d="M249.25,351c0-3.88.06-7.75,0-11.63,0-1.74.63-2.33,2.33-2.3,5.09.07,10.19.12,15.28,0,2.36-.05,2.44,1.29,2.35,3s.47,3.49-2.3,3.33c-2.43-.13-4.88,0-7.31,0-1.42,0-2.34.27-2.3,2,0,1.56.91,1.8,2.16,1.8,2.22,0,4.44.11,6.65,0,2.53-.12,2.1,1.7,2.21,3.15s0,2.95-2.13,2.89-4.43.06-6.65,0c-1.79-.06-2.27.8-2.25,2.43s.31,2.55,2.18,2.49c2.55-.09,5.1.08,7.64,0,2.37-.11,2.49,1.33,2.31,3s.89,3.83-2.17,3.81c-5.2,0-10.41-.08-15.61,0-2,0-2.46-.82-2.42-2.59.08-3.77,0-7.53,0-11.3Z"/><path class="cls-9" d="M162.63,351c0-3.66.08-7.32,0-11-.06-2.06.49-3,2.77-3,4.87.12,9.76.17,14.62,0,2.81-.1,2.56,1.57,2.64,3.41.1,2-.28,3.16-2.67,3s-4.87,0-7.31,0c-1.35,0-2,.47-2,1.93s.71,1.9,2.07,1.86c2.1-.06,4.22.12,6.31-.05,2.45-.19,2.6,1.18,2.63,3.08s-.32,3.21-2.69,3c-1.87-.15-3.77.06-5.65-.06s-2.71.63-2.71,2.67,1.1,2.32,2.73,2.26c1.88-.06,3.77,0,5.65,0,3.58,0,5.06,2.28,3.83,5.76-.4,1.14-1.22,1.07-2.12,1.06-5.21,0-10.42-.08-15.63,0-1.95,0-2.47-.85-2.44-2.61C162.67,358.51,162.62,354.75,162.63,351Z"/><path class="cls-5" d="M373,351c0-3.76.05-7.53,0-11.3,0-1.7.33-2.68,2.36-2.64,5.09.09,10.2.09,15.29,0,2.77-.08,2.2,1.78,2.3,3.36s0,3.12-2.33,3-4.87,0-7.31,0c-1.21,0-2.17.14-2.22,1.73s.89,2.05,2.3,2c2.11,0,4.22.1,6.32,0,2.42-.14,2.31,1.4,2.3,3s.11,3.18-2.3,3.06c-2.21-.12-4.44,0-6.65,0-1.68,0-2,.87-2,2.31s.18,2.65,2.1,2.6c2.55-.05,5.1.13,7.64,0s2.49,1.51,2.43,3.23.53,3.67-2.43,3.59c-5.1-.13-10.2-.1-15.3,0-1.91,0-2.51-.7-2.47-2.53.09-3.77,0-7.54,0-11.31Z"/><path class="cls-10" d="M295.76,350.81c0-3.66.08-7.32,0-11-.05-1.92.47-2.84,2.6-2.79,4.87.12,9.76.17,14.63,0,2.88-.11,2.45,1.66,2.56,3.44.14,2.08-.44,3.1-2.74,2.94s-4.66,0-7,0c-1.31,0-2.08.4-2.09,1.89s.74,1.92,2.06,1.89c1.89,0,3.78.07,5.66,0,2-.12,3.33.16,3.26,2.78-.07,2.31-.52,3.59-3.16,3.31-1.64-.17-3.32.05-5,0-1.81-.09-2.92.23-2.9,2.47s1.16,2.52,2.94,2.46c2.11-.08,4.23.13,6.32-.07,2.79-.27,3,1.25,3,3.43s-.15,3.56-3,3.43c-4.76-.21-9.53-.18-14.29,0-2.45.09-3-.9-3-3.11.12-3.65,0-7.32,0-11Z"/><path class="cls-5" d="M97.62,365.3c-6.47-.06-10.39-3.35-11.52-9.7a25.6,25.6,0,0,1-.16-8.6c1.36-8.16,7.54-12.13,15.56-10a8.23,8.23,0,0,1,4.88,3.26c1,1.5,2.71,3.33,1.62,5.07-1,1.53-3.35,1.42-5.17,1.81-1.32.29-1.54-1-2.13-1.72-2.17-2.74-4.71-2.45-6.07.78a13.37,13.37,0,0,0-.08,9.74,3.37,3.37,0,0,0,3.16,2.56c1.49,0,2.29-1.1,3-2.27.6-.95.43-2.88,2-2.65a18.58,18.58,0,0,1,5.28,1.86c1,.49.44,1.56.23,2.4C107,362.92,103.49,365.36,97.62,365.3Z"/><path class="cls-11" d="M346.29,351.39a21.64,21.64,0,0,1,.86-7.29c1.57-4.8,5.06-7.32,10.22-7.47,5.92-.16,9.05,1.66,11,6.17.87,2,.62,3-1.67,3.5s-4.33,1.56-6.07-1.48c-1.31-2.29-4.35-1.61-5.46,1.13a14.54,14.54,0,0,0,0,10.39,3,3,0,0,0,2.76,2.09c1.64.1,2.59-.91,3.32-2.3,1.55-2.94,2.75-3.13,6.45-1.24,2.73,1.39,1.05,3.31.39,4.81a8.75,8.75,0,0,1-8,5.59c-4.61.23-8.87-.28-11.59-4.74A16.78,16.78,0,0,1,346.29,351.39Z"/><path class="cls-12" d="M273.39,350.86c0-3.77.07-7.53,0-11.3-.05-1.89.68-2.54,2.53-2.5,4.43.08,8.87.11,13.29,0,2.38-.07,2.68,1.15,2.68,3.1s-.26,3.5-2.85,3.26c-1.53-.15-3.09,0-4.64,0s-3.1-.16-3.05,2.28c.06,2.21,1.36,2.17,2.88,2.13a26.22,26.22,0,0,0,2.66,0c2.45-.34,3.55.35,3.57,3.13s-1.47,2.89-3.55,2.89c-6.38,0-5.43-.63-5.52,5.43,0,.44,0,.89,0,1.33,0,3.8-3.41,5.81-7,4.16-1.22-.56-.95-1.63-1-2.57C273.37,358.39,273.39,354.62,273.39,350.86Z"/><path class="cls-12" d="M122.43,344.52c1.3-.78,1.43-2,1.94-2.93,2.54-4.65,3.8-5.26,9.11-4.54,1.76.24,1.72.91,1,2.17-1.18,2-2.15,4.13-3.43,6.07-3.34,5-5.41,10.37-4.43,16.53.49,3.07-1.41,3.21-3.61,3-2-.16-5,.84-4.35-3,1.47-8.14-3.31-14.09-6.85-20.5a22,22,0,0,1-1.13-2c-.68-1.66-.54-2.28,1.49-2.41,4-.27,7.52-.11,8.67,4.77A10.57,10.57,0,0,0,122.43,344.52Z"/><path class="cls-13" d="M202.65,221.51c1.8-.46,1.95-1.82,1.91-3.37-.19-8.58-.44-17.17-.44-25.75,0-2.64,1.22-4.38,4.55-4.36,17.74.13,35.49,0,53.24.05,3.87,0,4.75.87,4.77,4.69,0,8.1,0,16.2,0,24.3,0,1-.53,2.41.88,2.91s2-.82,2.7-1.55q8.75-8.62,17.42-17.32c2.14-2.14,2.72-5.09,2.73-7.79.14-31.4.06-62.79.16-94.19,0-2.1-1.94-3.54-1.31-5.66,2.55,1.3,2.44,3.72,2.44,6q0,40.44,0,80.88c0,4.77-.09,9.55,0,14.31a10.37,10.37,0,0,1-3.15,7.8c-6.54,6.46-13.16,12.84-19.79,19.21-.67.65-1.38,1.87-2.42,1.38s-.57-1.79-.58-2.72c-.08-8.43-.15-16.86-.1-25.29,0-5.26-.51-6-5.79-6.05q-24.79-.07-49.59,0c-4.19,0-4.85.72-4.86,4.85,0,8.1,0,16.2,0,24.3a11.44,11.44,0,0,1-.33,3.26C204.46,223.54,203.53,223.13,202.65,221.51Z"/><path class="cls-14" d="M185.58,90.31c-.22.61-.26,1.52-.69,1.8-3.69,2.33-3.69,5.9-3.55,9.63.47,13-.79,25.89-.71,38.85,0,3.17-.79,6.42-.41,9.59,1.92,15.68.75,31.43,1.14,47.15a5.22,5.22,0,0,0,1.61,3.81c.92.91,2.2,1.53,2.56,2.94a1.43,1.43,0,0,1-1.17.35c-4.57-2.27-5.3-6.41-5.3-10.91,0-17.94-.05-35.87,0-53.81,0-8.73-.39-17.48.32-26.21.11-1.44-.61-2.82-.2-4.26a23.25,23.25,0,0,0,.26-7.53,11.86,11.86,0,0,1,5.95-11.91c.18.06.27.16.26.29S185.63,90.31,185.58,90.31Z"/><path class="cls-15" d="M186.79,385.33c5.85-1.45,9.35-.12,11.48,4.38,2.45,5.15,1.1,12.85-2.87,15.55-3.28,2.23-6.67,1.91-10,0-4-3.47-4.1-8.13-3.57-12.81A9.35,9.35,0,0,1,186.79,385.33Z"/><path class="cls-16" d="M294.76,391.63c-.91,4.44-.27,8-.48,11.51-.07,1.11.36,3-1.2,3-1.74.06-1.19-1.81-1.21-2.88-.07-5.21,0-10.42,0-15.63,0-.84-.27-1.9.8-2.32,1.27-.49,1.75.54,2.28,1.39q3.24,5.2,6.5,10.41c.4.63.69,1.64,1.6,1.44s.63-1.28.64-2c.05-2.88,0-5.77.05-8.65,0-1-.39-2.59,1.22-2.58,1.34,0,1.09,1.46,1.09,2.4.06,5.32.06,10.64.06,16,0,1,.21,2.19-1.05,2.51s-1.74-.77-2.26-1.6C300.25,400.55,297.73,396.45,294.76,391.63Z"/><path class="cls-17" d="M355.79,153.59a5.45,5.45,0,0,1-1.63-.13c-3.58-1.43-3.59-1.45-3.59,2.36,0,13.16,0,26.33,0,39.5,0,1.12-.65,2.64.78,3.29s2.15-.83,2.95-1.62q10.46-10.38,20.82-20.86c.89-.9,3.08-2-.12-3-.87-.27-.55-1.56-.52-2.43,4.66,2.84,4.68,3.48,1,7.07-7.2,7-14.29,14.16-21.42,21.25-.63.63-1.25,1.26-1.91,1.85s-1.06,1.32-1.92,1.06-.62-1.29-.68-2c-.11-1.43-.15-2.88-.15-4.31q0-21.1,0-42.21a21.28,21.28,0,0,1,.11-2.65c.08-.72-.21-1.73.66-2s1.43.5,2,1A16.67,16.67,0,0,1,355.79,153.59Z"/><path class="cls-18" d="M272.53,386.41a7.78,7.78,0,0,1,10.88,1.07c3.49,4,3.63,12,.34,16.17a7.85,7.85,0,0,1-8.63,2.83c-3.19-.8-5.56-2.71-5.94-6.32-.23-3.27-.69-6.51.55-9.76A11.13,11.13,0,0,1,272.53,386.41Z"/><path class="cls-19" d="M235.21,393.49a61.24,61.24,0,0,1,0,6.64c-.44,4.1-3.3,6.67-7,6.6a6.89,6.89,0,0,1-6.87-6.76c-.26-4.31-.09-8.64-.08-13,0-.89.11-1.88,1.39-1.8s1.3,1.05,1.31,2c0,3.21,0,6.42,0,9.64a13.53,13.53,0,0,0,.39,3.6c.58,1.89,1.74,3.52,3.91,3.54,2.32,0,3.53-1.61,4.08-3.7.91-3.49.37-7.06.5-10.59,0-.78-.07-1.56,0-2.33s0-1.95,1.2-2,1.26,1,1.28,1.89c.05,2.1,0,4.21,0,6.31Z"/><path class="cls-20" d="M317.17,393.31c1.08.54,2.13,1.14,3.25,1.61,3,1.25,3.94,3.52,3.74,6.62-.16,2.38-1.08,4-3.39,4.74-2.94.93-5.68.69-8.06-1.44-.87-.78-1.54-1.87-.67-2.89s1.69.27,2.49.66a22.26,22.26,0,0,0,2,1.14c1.86.66,3.6.4,4.56-1.48s.05-3.25-1.47-4.24c-1.1-.72-2.37-1.15-3.54-1.77-4-2.1-5.13-5.16-3.3-8.62,1.5-2.86,5.57-3.87,9-2.2a21.28,21.28,0,0,1,1.94,1.25,1.78,1.78,0,0,1,0,2.61c-.9.87-1.8.16-2.66-.39-1.38-.88-2.75-2-4.55-1h0C314.11,390,315.17,391.72,317.17,393.31Z"/><path class="cls-21" d="M104.91,185.46c1.61-.22,2.32,1.09,3.22,2,4.17,4.18,8.29,8.41,12.51,12.7,1.15-1.42.77-2.57.77-3.61q0-21.1,0-42.21c0-1.15.84-2.78-1.13-3.34a.69.69,0,0,1-1-.18c.67-1,1.59-2.41,2.71-2.07,1.37.43.69,2.13.69,3.27q.06,23.55,0,47.1c0,1,.54,2.6-.53,3.06-1.29.57-2-1-2.8-1.8C114.63,195.34,109.24,190.92,104.91,185.46Z"/><path class="cls-22" d="M174.62,401c-.69-3.13-3.57-3.68-5.84-4.87-3.64-1.92-4.91-4.94-3.36-8.43,1.18-2.69,5.59-4,8.71-2.46a7.39,7.39,0,0,1,2,1.67,1.34,1.34,0,0,1,.1,1.82c-.54.7-1.15.47-1.76.11a13.39,13.39,0,0,0-1.69-1c-1.79-.77-3.68-.77-4.6,1.08s-.34,3.65,1.84,4.58a30.66,30.66,0,0,1,4.15,2c3.5,2.16,3.76,6.82.63,9.74-.89.44-1.94,1-2.59-.1-.55-.9.58-1.2,1.12-1.61A3.94,3.94,0,0,0,174.62,401Z"/><path class="cls-23" d="M179.21,109.24c.83,1.43.58,3,.58,4.53q-.06,40-.2,80c0,4.44,1.22,8,5.14,10.41,1,.66,2.33,1,1.87,2.67-5.24-2.56-8-6.27-8-12.58.24-26.94.09-53.88.11-80.82C178.73,112.05,178.45,110.58,179.21,109.24Z"/><path class="cls-24" d="M249.29,390.6l-.07,14.57c-2,1.31-2.81,1-2.88-1.36-.11-4.29-.15-8.6,0-12.89.09-2.44-.39-3.81-3.2-3.36-.93.15-2.17.22-2.2-1.25s1.11-1.4,2.12-1.36c3.84.14,7.7-.33,11.53.25l.08.07c.69,1.78-.07,2.56-1.79,2.29C250.41,387.16,249.38,388.27,249.29,390.6Z"/><path class="cls-25" d="M262.78,395.71c0,2.65.07,5.31,0,8,0,.93.55,2.58-1.22,2.49-1.48-.08-1.31-1.56-1.32-2.63-.05-3,0-6,0-8.95,0-2.1-.09-4.2,0-6.3,0-1.1-.49-2.82,1.26-2.92,1.93-.11,1.27,1.7,1.31,2.73.12,2.53,0,5.08,0,7.62Z"/><path class="cls-26" d="M220,56.29c1.21,3.55-1.87,4.56-3.84,5.71-2.81,1.63-4.52,4.22-6.77,6.32-3,2.54-5.52,5.63-8.66,8l-7.32,7.3a1,1,0,0,1-1.49-.07c.85-2,3-2.83,4.12-4.64a27.41,27.41,0,0,1,5.39-5.26c5.33-5.15,10.65-10.32,16-15.43C218.19,57.53,218.72,56.42,220,56.29Z"/><path class="cls-27" d="M205.36,387.9c-.12-1-.69-2.52.87-2.7,1.76-.2,1.63,1.45,1.65,2.63.08,4.31.25,8.64.06,12.95-.11,2.6.89,3.35,3.26,3.15a24.06,24.06,0,0,1,4,.09,1.33,1.33,0,0,1,1.3,1.26c0,.33-.41.94-.68,1-3.45.35-6.92.95-10.3-.37-.09,0,0-.41-.06-.63.65-.84,1.6-.36,2.47-.52.33.14,0-.63,0-.18,0,.25-.09.28-.25.23-1.72-.46-1.64-1.85-1.64-3.18,0-3.54,0-7.08,0-10.61C206,389.93,206.47,388.73,205.36,387.9Z"/><path class="cls-28" d="M254.61,385.2c-3.65,0-7.3,0-11,0-.83,0-2-.28-2.18.91s1.12,1.22,1.93,1.12c3-.35,3.46,1.17,3.35,3.73-.17,4.2-.06,8.41,0,12.61,0,1.64.31,3.15,2.46,1.56.16,1.05-.25,1.86-1.34,1.78A2.14,2.14,0,0,1,246,404.6c-.08-3.19,0-6.39,0-9.58,0-1.32-.14-2.66,0-4,.21-2.18-.41-3.34-2.86-3.09-1.29.13-3,.13-2.9-1.77s1.78-1.72,3.07-1.63C247,384.83,250.9,383.77,254.61,385.2Z"/><path class="cls-29" d="M174.62,401c.56,1.87-.86,2.76-2,3.8.65.71,1.46.27,2.15.44-2.69,2.08-7.2,2-9.31-.28-.73-.78-1.68-1.85-.9-2.93,1-1.41,1.93,0,2.77.51C170.78,404.84,172.42,404.51,174.62,401Z"/><path class="cls-26" d="M228,49.71a12.94,12.94,0,0,0-4.12,4.45A3.4,3.4,0,0,1,220,56.31c4.07-5,8.93-9.28,13.69-13.62a2.41,2.41,0,0,1,3.77.29c-1.08,1.33-3,.18-4.1,1.4l-2.56,2.69A6.4,6.4,0,0,1,228,49.71Z"/><path class="cls-30" d="M205.36,387.9c.89-.78,1.38-.91,1.36.61-.06,4.28,0,8.55-.05,12.83,0,1.68.23,3,2,3.9h-3.23A170,170,0,0,1,205.36,387.9Z"/><path class="cls-31" d="M186.79,385.33c-6.12,6.38-6.43,10.86-1.39,19.89-1.9-.38-2.38-2.12-3.16-3.47C179.05,396.23,181.6,387.2,186.79,385.33Z"/><path class="cls-32" d="M258.64,64.28a131.46,131.46,0,0,0-11-10.85,7.39,7.39,0,0,1-2.29-3.12c2.77.93,4.19,3.46,6.13,5.32,2.91,2.81,6.09,5.39,8.48,8.72A.81.81,0,0,1,258.64,64.28Z"/><path class="cls-33" d="M258.64,64.28l1.28.07,8,8a.84.84,0,0,1,0,1.31C264.39,71,261.06,68.07,258.64,64.28Z"/><path class="cls-34" d="M119.31,150.81l1,.18c-1.81,2.83-4.6,4.73-6.8,7.19-.79.88-1.79.7-2.78.68A43.26,43.26,0,0,1,119.31,150.81Z"/><path class="cls-35" d="M94.77,173.28c1.23,3,4.16,4.51,6,6.93a20,20,0,0,1,3.27,2.69l.64,2.12c-4.3-2.54-7.19-6.6-10.67-10C93.32,174.26,93.91,173.6,94.77,173.28Z"/><path class="cls-36" d="M191.89,83.58l1.49.07a19.43,19.43,0,0,1-7.8,6.66,3.33,3.33,0,0,1-.16-.51A38.87,38.87,0,0,1,191.89,83.58Z"/><path class="cls-37" d="M233.31,44.38c.88-1.88,2.65-1.18,4.1-1.4a8.31,8.31,0,0,1,4.07,4c-1.08.09-2.21.23-2.95-.82C237.21,44.32,235.31,44.22,233.31,44.38Z"/><path class="cls-38" d="M267.89,73.69c0-.44,0-.87,0-1.31,2.4,2,4.9,4,6.63,6.65C271.11,78.78,269.68,76,267.89,73.69Z"/><path class="cls-39" d="M186.6,206.88l-1.87-2.67.8-.13c3,2.26,5.43,5.17,7.95,7.95a.68.68,0,0,1-.21.95Z"/><path class="cls-40" d="M193.27,213l.21-.95c2.52,1.1,5.4,1.86,5.15,5.53C196.35,216.62,194.87,214.73,193.27,213Z"/><path class="cls-41" d="M373.19,169.53c-3.63,0-4.91-3-6.8-5.26a.66.66,0,0,1,1-.15A20.18,20.18,0,0,1,373.19,169.53Z"/><path class="cls-42" d="M272.53,386.41c-3.41,4-3.43,8.88-3.35,13.75C267.2,394.51,268.58,388.85,272.53,386.41Z"/><path class="cls-43" d="M367.4,164.12l-1,.15c-2.54-1.91-5.15-3.76-6.52-6.8C362.93,159.07,365.11,161.66,367.4,164.12Z"/><path class="cls-44" d="M281.27,85.68c-2.69-1.76-5.87-3-6.71-6.66A22.43,22.43,0,0,1,281.27,85.68Z"/><path class="cls-40" d="M198.62,217.55c2.95-.33,4.86.41,4,3.95A6.32,6.32,0,0,1,198.62,217.55Z"/><path class="cls-45" d="M316.52,387.9c1.63-1.26,3.17-.6,4.54.39,2.32,1.69,2.87.76,2.65-1.6a1.88,1.88,0,0,1,.22,3.08c-.94,1-1.91.54-2.9-.21A6.47,6.47,0,0,0,316.52,387.9Z"/><path class="cls-43" d="M359.89,157.5c-1.89-.75-4.35-.91-4.09-3.92A8.88,8.88,0,0,1,359.89,157.5Z"/><path class="cls-28" d="M249.29,390.6c-.67-2.34.06-3.48,2.63-3.29,1.41.11,3,.13,2.77-2,1.44,1.85.49,2.8-1.34,2.65A3.42,3.42,0,0,0,249.29,390.6Z"/><path class="cls-45" d="M317.17,393.31c-3.32-1.79-3.51-3.43-.64-5.41C315.16,389.89,316.37,391.57,317.17,393.31Z"/><path class="cls-46" d="M201.4,73.68A22.26,22.26,0,0,1,196,78.94,8.63,8.63,0,0,1,201.4,73.68Z"/><path class="cls-47" d="M265.28,111c0,15.52,0,31,.07,46.54a9.75,9.75,0,0,1-1.38,4.71c-.68,1.3-1.89,1.33-3.14,1.33q-25.18,0-50.36,0a4,4,0,0,1-2.52-.61c-1.45-.77-1.37-2.15-1.37-3.48q0-25.39,0-50.78a4.5,4.5,0,0,1,1.24-3.59c7.69-7.59,15.32-15.26,23-22.89a3.72,3.72,0,0,1,1.17-.55,2,2,0,0,1,.51,1.63,2.71,2.71,0,0,1-.43,1.09c-7.16,6.61-14,13.5-20.92,20.39a9.21,9.21,0,0,0-2.9,7.07c.09,15,0,29.92.05,44.87,0,4,.56,4.56,4.64,4.57q22.61,0,45.21,0c1.33,0,2.68.11,3.73-1,1.26-1.4.94-3.13.94-4.74q.06-14.38,0-28.78c0-5.28.83-10.54.23-15.82a3.43,3.43,0,0,1,.43-1.07C265,108.69,264.7,110.6,265.28,111Z"/><path class="cls-48" d="M208,162.93h51.17c1.64,0,3.34.22,4.85-.71.1,1.64-.83,2-2.28,2q-25.69,0-51.39,0C209.27,164.2,208.26,164.22,208,162.93Z"/><path class="cls-49" d="M238.72,80.24c6.64,6.2,13.63,12.05,18.94,19.57,1.74,2.46,4.62,4,5.63,7.13,1,.64,1.58,1.39.75,2.56l-.2.21c-3.6-2.3-5.67-6-8.33-9.15a16.33,16.33,0,0,0-3.2-3.73c-4.9-4.7-9.23-9.94-13.9-14.87a2.41,2.41,0,0,1-.18-.93A1.41,1.41,0,0,1,238.72,80.24Z"/><path class="cls-36" d="M200.7,76.35c2.68-2.9,4.92-6.27,8.66-8A19.45,19.45,0,0,1,200.7,76.35Z"/><path class="cls-50" d="M238.72,80.24l-.16.87c-1.74-.27-3.35-.19-4.65,1.3-.43.5-1.11,1.12-1.94.48,0-.42,0-.84,0-1.25C234.07,80.34,235.65,76.72,238.72,80.24Z"/><path class="cls-48" d="M264,109.5l-.75-2.56c3.14.11,1.6,2.54,2,4Z"/><path class="cls-37" d="M228,49.71a5.75,5.75,0,0,1,2.76-2.64C230.91,49.08,230,50,228,49.71Z"/><path class="cls-51" d="M104.09,182.9c-1.61-.27-2.45-1.47-3.27-2.69C102.7,180.14,103.61,181.26,104.09,182.9Z"/><path class="cls-52" d="M147.45,358.61c-1.76.28-2.21-.79-2.16-2.52,0-1.56.09-2.84,2.22-2.71,1.8.1,3.47.41,3.53,2.52S149.5,358.56,147.45,358.61Z"/><path class="cls-53" d="M145.34,345.3c-.08-1.22.11-2.26,1.89-2.17,1.5.07,2.66.51,2.73,2.16.07,1.85-1.28,2.35-2.82,2.5C145.28,348,145.32,346.68,145.34,345.3Z"/><path class="cls-54" d="M194.92,345.46c-.12-1.43.25-2.5,2.13-2.37,1.69.1,3.22.45,3.15,2.51s-1.62,2.4-3.26,2.55C194.94,348.32,194.88,347,194.92,345.46Z"/><path class="cls-55" d="M232,351.05c0-1.43-.08-2.88,0-4.3.08-1-.71-2.42.92-2.77a3.48,3.48,0,0,1,3.52,1.39c1.69,2,1.68,9.52,0,11.47a3.38,3.38,0,0,1-3.6,1.08c-1.29-.36-.81-1.64-.85-2.56C232,353.93,232,352.49,232,351.05Z"/><path class="cls-56" d="M184.5,395.66a18.64,18.64,0,0,1,.15-2c.6-3.85,3-6.38,6.09-6.32,2.71.06,5.27,2.75,5.82,6.28a11.28,11.28,0,0,1-.39,5.55c-.95,2.73-2.49,4.83-5.56,4.86s-4.65-2.06-5.54-4.82A9.93,9.93,0,0,1,184.5,395.66Z"/><path class="cls-57" d="M272,390.61c1.8-2.32,3.91-4,7-2.84,3,1.12,3.8,3.78,4.17,6.58a10.59,10.59,0,0,1-.41,4.89c-1.64,4.82-4.65,5.9-9.5,3.32A11,11,0,0,1,272,390.61Z"/><path class="cls-42" d="M272,390.61a12.59,12.59,0,0,0,1.3,11.95c-1.83-.23-2.33-1.93-2.4-3.1C270.73,396.49,269.27,393.25,272,390.61Z"/><path class="cls-58" d="M232,82.89a8.57,8.57,0,0,0,2-1.57c1.49-2.19,3-1.58,4.55-.21a2.86,2.86,0,0,0,.06.58c5.62,6.37,11.42,12.57,17.46,18.54l7.76,9.48c1.05,8.38.1,16.78.2,25.17.09,7.41,0,14.82,0,22.24,0,1.57.49,3.4-1.36,4.45-.93.54-1.95.29-2.93.29q-23.62,0-47.24,0c-4.27,0-4.77-.5-4.77-4.75,0-13.87,0-27.73,0-41.59a57.32,57.32,0,0,1,.79-7.55c.23-2,1.92-2.9,3.17-4.09,6.49-6.16,12.55-12.76,19.25-18.71a3.93,3.93,0,0,0,1-1.68A3.15,3.15,0,0,1,232,82.89Z"/><path class="cls-59" d="M231.91,83.5c-.24,3.59-3.68,4.72-5.6,7-3,3.48-6.72,6.25-9.71,9.79a15.87,15.87,0,0,1-4.63,4.17c-3.65,1.9-3.67,6-3.75,9-.38,14.74-.13,29.49-.21,44.24,0,3.21,1.62,3.9,4.4,3.89,16.74,0,33.49,0,50.23,0-1.3,1.19-2.93.83-4.43.83q-22.42.06-44.87,0c-5.58,0-6.21-.68-6.21-6.39,0-14.63.15-29.26.06-43.88a10.53,10.53,0,0,1,3.65-8.45C218,97.1,224.48,89.81,231.91,83.5Z"/><path class="cls-60" d="M256.08,100.23c-2.17-.23-2.75-2.33-4.1-3.52-4.68-4.11-8.56-9-12.78-13.54a4.67,4.67,0,0,1-.58-1.48A174.87,174.87,0,0,1,256.08,100.23Z"/></svg>